<svg width="500" height="500" viewBox="0 0 500 500" xmlns="http://www.w3.org/2000/svg">
  <rect width="500" height="500" rx="40" fill="#0d0f1a"/>
  <rect width="500" height="500" rx="40" fill="none" stroke="#1e2240" stroke-width="2"/>

  <circle cx="250" cy="195" r="85" fill="none" stroke="#1a1d35" stroke-width="28"/>
  <circle cx="250" cy="195" r="85" fill="none" stroke="#4f6ef7" stroke-width="4" stroke-dasharray="105 430" stroke-dashoffset="-22"/>
  <circle cx="250" cy="195" r="85" fill="none" stroke="#22d3a5" stroke-width="4" stroke-dasharray="68 467" stroke-dashoffset="-150"/>
  <circle cx="250" cy="195" r="85" fill="none" stroke="#a855f7" stroke-width="4" stroke-dasharray="54 481" stroke-dashoffset="-248"/>

  <circle cx="250" cy="195" r="52" fill="none" stroke="#1a1d35" stroke-width="18"/>
  <circle cx="250" cy="195" r="52" fill="none" stroke="#4f6ef7" stroke-width="3" stroke-dasharray="70 256" stroke-dashoffset="14"/>
  <circle cx="250" cy="195" r="52" fill="none" stroke="#22d3a5" stroke-width="3" stroke-dasharray="44 282" stroke-dashoffset="-98"/>

  <circle cx="250" cy="195" r="20" fill="#4f6ef7" opacity="0.9"/>
  <circle cx="250" cy="195" r="10" fill="#ffffff"/>

  <circle cx="182" cy="108" r="7" fill="#4f6ef7"/>
  <circle cx="318" cy="108" r="7" fill="#22d3a5"/>
  <circle cx="182" cy="282" r="7" fill="#22d3a5"/>
  <circle cx="318" cy="282" r="7" fill="#a855f7"/>
  <circle cx="145" cy="195" r="7" fill="#a855f7"/>
  <circle cx="355" cy="195" r="7" fill="#4f6ef7"/>

  <line x1="182" y1="108" x2="232" y2="178" stroke="#4f6ef7" stroke-width="1.2" opacity="0.5"/>
  <line x1="318" y1="108" x2="268" y2="178" stroke="#22d3a5" stroke-width="1.2" opacity="0.5"/>
  <line x1="182" y1="282" x2="232" y2="212" stroke="#22d3a5" stroke-width="1.2" opacity="0.5"/>
  <line x1="318" y1="282" x2="268" y2="212" stroke="#a855f7" stroke-width="1.2" opacity="0.5"/>
  <line x1="145" y1="195" x2="198" y2="195" stroke="#a855f7" stroke-width="1.2" opacity="0.5"/>
  <line x1="302" y1="195" x2="355" y2="195" stroke="#4f6ef7" stroke-width="1.2" opacity="0.5"/>

  <text x="250" y="352" text-anchor="middle" font-family="'Courier New', monospace" font-size="56" font-weight="700" fill="#ffffff" letter-spacing="8">OMAGE</text>
  <rect x="168" y="362" width="164" height="2" rx="1" fill="#4f6ef7" opacity="0.5"/>
  <text x="250" y="392" text-anchor="middle" font-family="'Courier New', monospace" font-size="14" fill="#9ca3af" letter-spacing="2">Build AI the way you think.</text>
  <text x="250" y="430" text-anchor="middle" font-family="monospace" font-size="12" fill="#4f6ef7" opacity="0.6">v0.1.1-alpha · MIT License</text>
</svg>
